<?xml version="1.0" encoding="iso-8859-1"?>
<!-- Generator: Adobe Illustrator 21.1.0, SVG Export Plug-In . SVG Version: 6.00 Build 0)  -->
<svg version="1.1" id="Calque_1" xmlns="http://www.w3.org/2000/svg" xmlns:xlink="http://www.w3.org/1999/xlink" x="0px" y="0px"
	 width="432px" height="432px" viewBox="0 0 432 432" enable-background="new 0 0 432 432" xml:space="preserve">
<g fill="#006622">
	<g>
		<path d="M156.443,283.259c-1.738,2.748-3.309,5.518-5.156,8.09c-3.638,5.066-7.391,10.051-11.168,15.015
			c-3.022,3.971-7.06,6.315-11.999,7.103c-6.971,1.113-13.555,3.493-19.936,6.396c-5.297,2.409-10.434,5.166-15.673,7.706
			c-2.751,1.334-4.943,3.353-7.123,5.417c3.016,2.348,2.202,3.52-0.578,4.357c0.861,1.413,1.71,2.81,2.562,4.205
			c0.184,0.301,0.394,0.589,0.556,0.901c0.233,0.45,0.347,0.987-0.221,1.193c-0.283,0.103-0.835-0.082-1.047-0.326
			c-0.535-0.618-0.944-1.346-1.409-2.026c-0.627-0.917-1.258-1.83-2.134-2.681c0.061,0.345,0.089,0.699,0.188,1.032
			c0.585,1.973,1.225,3.931,1.763,5.916c0.196,0.725,0.295,1.53,0.192,2.263c-0.07,0.501-0.51,1.001-0.9,1.383
			c-0.157,0.154-0.668,0.081-0.929-0.056c-0.143-0.075-0.133-0.5-0.139-0.768c-0.021-0.858,0.161-1.766-0.058-2.567
			c-0.634-2.323-1.412-4.607-2.163-6.896c-0.176-0.536-0.47-1.033-0.775-1.689c-1.178,0.986-1.703,2.163-2.083,3.379
			c-0.42,1.344-0.668,2.74-1.039,4.101c-0.246,0.905-0.509,1.816-0.883,2.673c-0.626,1.434-1.622,2.496-3.327,2.465
			c-1.763-0.032-3.017-0.975-3.736-2.524c-0.416-0.896-0.684-1.886-0.86-2.862c-0.886-4.93-1.416-9.909-1.366-14.915
			c0.034-3.405,0.403-6.808,0.642-10.21c0.033-0.465,0.159-0.927,0.268-1.384c0.699-2.938,2.627-4.509,5.667-4.583
			c2.43-0.059,4.755,0.581,6.666,1.974c2.008,1.463,3.636,1.173,5.383-0.222c6.138-4.902,13.006-8.7,19.599-12.91
			c3.126-1.996,6.412-3.792,10.203-4.177c1.867-0.189,3.763-0.066,5.642-0.159c1.287-0.064,2.583-0.176,3.846-0.416
			c1.267-0.241,2.075-1.018,2.168-2.416c0.105-1.582,0.169-3.178,0.435-4.737c0.732-4.286,1.486-8.572,2.37-12.829
			c1.186-5.712,1.932-11.478,2.37-17.286c0.097-1.282,0.014-2.594-0.132-3.876c-0.642-5.651,0.875-10.594,4.704-14.816
			c1.937-2.136,3.962-4.2,5.776-6.436c2.344-2.888,3.079-6.742,2.262-10.495c-3.673-0.773-7.361-1.489-11.019-2.336
			c-3.665-0.849-7.303-1.818-10.945-2.762c-0.851-0.221-1.694-0.505-2.503-0.849c-2.539-1.08-3.483-2.891-2.72-5.528
			c0.387-1.339,0.944-2.68,1.688-3.853c1.322-2.083,2.753-4.113,4.307-6.028c2.485-3.062,5.082-6.034,7.68-9.002
			c2.372-2.71,4.999-5.136,7.97-7.208c1.63-1.137,3.12-2.491,4.59-3.838c1.25-1.146,1.821-2.713,2.304-4.308
			c0.299-0.988,0.175-1.861-0.495-2.641c-0.492-0.572-1.006-1.125-1.526-1.703c-1.517,0.634-2.495,1.735-3.413,2.868
			c-0.776,0.958-1.483,1.981-2.136,3.029c-2.376,3.811-5.975,6.088-9.882,7.998c-0.655,0.32-1.276,0.355-1.734-0.271
			c-0.413-0.564-0.23-1.18,0.234-1.598c2.425-2.186,3.434-5.149,4.525-8.075c0.848-2.274,2.262-4.107,4.293-5.459
			c1.514-1.008,3.014-2.038,4.576-3.096c-0.378-3.277,0.223-6.431,1.56-9.428c2.219-4.976,5.794-8.438,11.308-9.412
			c4.904-0.866,8.951,0.786,11.942,4.76c0.716,0.951,1.03,2.205,1.613,3.508c1.098-0.251,2.334-0.552,3.579-0.812
			c0.631-0.132,1.274-0.234,1.916-0.273c0.627-0.037,1.293,0.181,1.358,0.848c0.05,0.506-0.147,1.246-0.51,1.538
			c-0.667,0.536-1.51,0.893-2.329,1.192c-1.374,0.501-2.787,0.898-4.103,1.313c-0.452,1.317-0.008,2.349,0.424,3.384
			c0.497,1.192,1.144,2.368,0.904,3.714c-0.117,0.66-0.304,1.421-0.732,1.885c-0.549,0.595-0.658,1.188-0.663,1.911
			c-0.007,1-0.011,2.006-0.118,2.998c-0.307,2.852-1.604,4.147-4.471,4.566c-0.34,0.05-0.675,0.128-1.192,0.227
			c0.073,0.748,0.052,1.449,0.222,2.099c0.502,1.917,1.469,3.604,2.899,4.972c2.285,2.187,4.056,4.713,5.411,7.567
			c1.206,2.54,2.517,5.03,4.135,7.573c0.166-0.628,0.371-1.248,0.489-1.885c0.15-0.808,0.206-1.633,0.343-2.444
			c0.434-2.574,2.022-3.843,4.614-3.446c1.732,0.265,3.445,0.75,5.116,1.294c1.495,0.486,2.156,1.722,2.333,3.244
			c0.223,1.914-0.312,3.634-1.426,5.153c-1.985,2.704-3.992,5.392-6.064,8.029c-1.381,1.758-2.907,3.402-4.335,5.124
			c-0.75,0.905-1.461,1.847-2.134,2.811c-1.106,1.585-1.638,3.341-1.667,5.298c-0.094,6.416-0.224,12.831-0.403,19.245
			c-0.051,1.817-0.243,3.64-0.502,5.441c-0.476,3.309-0.182,6.459,1.591,9.37c2.02,3.317,3.963,6.684,6.087,9.934
			c3.29,5.036,6.182,10.288,8.894,15.648c1.972,3.898,2.918,8.02,3.085,12.393c0.096,2.509,0.476,5.039,1.024,7.494
			c1.812,8.123,4.76,15.884,7.922,23.557c0.823,1.997,1.994,3.863,3.131,5.713c0.765,1.244,1.27,1.499,2.58,2.005
			c0.307-3.148,0.609-6.278,0.934-9.405c0.012-0.116,0.253-0.208,0.419-0.336c0.881,0.28,0.895,1.029,0.896,1.709
			c0.002,1.529-0.055,3.059-0.108,4.588c-0.022,0.643-0.096,1.284,0.079,2.062c0.393-0.513,0.773-1.038,1.183-1.537
			c0.546-0.665,1.177-1.186,2.124-0.891c0.785,0.245,1.172,0.994,1.054,2.188c-0.073,0.745-0.274,1.477-0.421,2.231
			c2.624-0.118,3.068,0.484,2.309,3.354c1.167-0.153,2.25-0.256,3.318-0.446c1.331-0.238,2.643-0.583,3.975-0.818
			c1.698-0.299,3.288-0.037,4.638,1.129c1.741,1.502,1.921,3.613,0.335,5.264c-0.932,0.97-1.967,1.876-3.077,2.634
			c-2.77,1.89-5.6,3.691-8.422,5.503c-2.985,1.916-6.158,3.449-9.547,4.508c-0.894,0.279-1.818,0.484-2.743,0.641
			c-2.206,0.375-3.928-0.488-5.205-2.246c-0.585-0.805-1.087-1.682-1.534-2.573c-0.923-1.84-1.805-3.702-2.667-5.573
			c-2.319-5.033-4.882-9.922-8.107-14.452c-1.261-1.771-2.351-3.665-3.489-5.52c-3.493-5.695-5.261-11.895-5.507-18.567
			c-0.086-2.345-0.372-4.686-0.634-7.021c-0.202-1.805-0.873-3.42-2.302-4.629c-5.692-4.817-10.558-10.406-15.174-16.229
			C156.754,283.489,156.647,283.428,156.443,283.259z M140.441,214.434c0.071-0.173,0.218-0.351,0.179-0.464
			c-0.649-1.874-1.283-3.757-2.014-5.6c-0.229-0.577-0.703-1.071-1.122-1.554c-0.506-0.583-1.115-0.618-1.694-0.093
			c-1.46,1.323-2.302,2.926-2.194,4.952c0.046,0.872,0.433,1.418,1.321,1.598C136.746,213.645,138.572,214.04,140.441,214.434z
			 M84.912,335.229c-1.046-0.674-1.046-0.674-1.884-0.154C83.693,335.13,84.151,335.167,84.912,335.229z"/>
		<path d="M281.742,109.837c0.109,1.367,0.619,2.41,1.73,3.171c0.775,0.531,1.497,1.143,2.221,1.745
			c2.264,1.881,3.602,4.295,4.179,7.174c0.94,4.69,1.263,9.434,1.473,14.202c0.076,1.737,0.558,3.458,0.897,5.179
			c0.064,0.325,0.324,0.612,0.532,0.986c1.064-0.229,1.593-1.018,2.01-1.832c0.749-1.463,1.424-2.965,2.083-4.47
			c0.681-1.556,1.694-2.705,3.468-2.903c0.626-0.07,1.365-0.133,1.895,0.125c2.207,1.074,4.195,2.447,4.862,5.015
			c0.477,1.834,0.094,3.523-1.218,4.918c-0.559,0.595-1.188,1.174-1.891,1.574c-1.824,1.038-3.26,2.48-4.641,4.025
			c-2.178,2.437-4.761,4.442-7.616,5.965c-3.184,1.699-4.784,4.292-5.649,7.665c-0.996,3.884-1.006,7.788-0.872,11.742
			c0.214,6.294,1.765,12.331,3.398,18.35c2.294,8.459,4.64,16.904,7.011,25.342c1.268,4.511,1.766,9.128,1.911,13.776
			c0.159,5.06,0.174,10.128,0.13,15.191c-0.044,5.111,0.901,10.059,2.104,14.985c0.623,2.551,2.008,4.623,3.883,6.399
			c0.412,0.39,0.907,0.691,1.525,1.155c0.4-0.986,0.709-1.794,1.057-2.586c0.245-0.559,0.59-1.122,1.316-0.844
			c0.702,0.269,0.682,0.856,0.425,1.479c-0.17,0.413-0.28,0.85-0.485,1.489c1.816-0.546,3.148-1.469,4.46-2.427
			c0.237-0.173,0.453-0.375,0.672-0.572c0.446-0.402,0.968-0.92,1.487-0.286c0.453,0.554,0.025,1.172-0.437,1.532
			c-1.156,0.903-2.364,1.741-3.572,2.575c-0.429,0.296-0.917,0.505-1.514,0.827c1.374,0.935,2.833,0.991,4.26,1.129
			c1.58,0.153,3.175,0.19,4.743,0.42c0.914,0.134,1.843,0.438,2.669,0.854c2.331,1.175,2.713,3.331,0.906,5.189
			c-0.728,0.748-1.59,1.438-2.515,1.912c-4.915,2.52-10.137,4.088-15.623,4.724c-1.044,0.121-2.127,0.106-3.171-0.024
			c-2.145-0.267-3.705-1.425-4.586-3.422c-0.26-0.59-0.501-1.201-0.65-1.827c-0.985-4.152-2.798-7.984-4.527-11.851
			c-2.138-4.78-4.284-9.557-6.376-14.357c-1.542-3.539-2.445-7.263-2.539-11.118c-0.056-2.283,0.209-4.579,0.41-6.862
			c0.191-2.164,0.045-4.307-1.071-6.162c-2.728-4.533-5.603-8.977-8.483-13.558c-1.348,1.233-2.114,2.688-3.007,4.052
			c-1.611,2.459-3.158,4.969-4.915,7.321c-2.198,2.942-5.057,5.112-8.618,6.173c-7.557,2.25-14.507,5.823-21.339,9.659
			c-2.873,1.613-5.701,3.306-8.552,4.957c-1.289,0.747-2.388,1.692-3.278,2.902c-0.627,0.852-1.293,1.691-2.044,2.433
			c-1.714,1.693-2.109,3.978-3.127,6.292c1.332-0.269,2.201-0.781,2.999-1.476c1.464-1.277,2.933-2.549,4.43-3.787
			c0.397-0.329,0.882-0.602,1.371-0.749c0.263-0.079,0.77,0.074,0.897,0.284c0.133,0.22,0.007,0.666-0.128,0.956
			c-0.116,0.248-0.401,0.42-0.619,0.617c-1.309,1.185-2.588,2.406-3.941,3.54c-1.024,0.858-2.142,1.604-3.311,2.468
			c1.092,0.547,2.188-0.366,3.252-0.147c0.259,1.117,0.158,1.487-0.775,1.671c-1.027,0.203-2.098,0.219-3.152,0.24
			c-0.755,0.015-1.512-0.096-2.344-0.156c-0.969,2.153-1.141,4.389-1.149,6.593c-0.009,2.64,0.303,5.28,0.411,7.923
			c0.042,1.046,0.049,2.13-0.175,3.142c-0.507,2.287-2.662,3.257-4.61,1.954c-1.132-0.757-2.195-1.855-2.849-3.042
			c-1.926-3.5-3.855-7.029-5.363-10.718c-1.553-3.799-2.69-7.776-3.841-11.725c-0.367-1.26-0.38-2.696-0.235-4.016
			c0.316-2.879,1.926-4.88,4.669-5.881c1.877-0.686,3.799-1.25,5.664-1.964c1.145-0.438,2.285-0.955,3.317-1.61
			c6.38-4.05,12.187-8.855,17.894-13.782c2.718-2.346,5.336-4.811,8.082-7.122c2.345-1.974,4.826-3.779,7.988-4.461
			c0.327-2.021,0.578-3.998,0.975-5.945c0.833-4.088,1.851-8.129,2.464-12.273c0.585-3.953,0.748-7.867,0.028-11.764
			c-0.858-4.646-0.314-9.13,1.032-13.574c1.142-3.77,2.194-7.575,3.528-11.277c1-2.774,0.151-4.657-2.125-6.171
			c-4.065-2.705-8.139-5.395-12.196-8.112c-1.268-0.849-2.603-1.644-3.715-2.671c-2.65-2.449-3.131-5.267-1.475-8.468
			c0.726-1.402,1.628-2.733,2.592-3.987c3.717-4.836,7.971-9.137,12.966-12.67c4.563-3.228,9.036-6.587,13.997-9.224
			c0.942-0.501,1.892-1.328,2.391-2.247c0.854-1.575,1.355-3.341,2.018-5.063c-0.95-0.492-1.693-0.14-2.418-0.098
			c-1.884,0.109-2.219-0.3-1.686-2.137c0.097-0.336,0.191-0.672,0.322-1.136c-0.514-0.142-1.012-0.231-1.471-0.418
			c-0.857-0.35-1.116-1.078-0.413-1.629c1.553-1.217,1.159-2.286,0.303-3.75c-2.017-3.45-1.535-7.805,0.973-10.931
			c4.588-5.718,12.982-6.671,18.616-2.001c3.002,2.489,2.171,1.835,5.543,1.448c1.341-0.154,2.661-0.483,3.996-0.705
			c1.061-0.176,2.011,0.004,2.59,1.038c0.592,1.058,0.393,2.068-0.341,2.953c-0.446,0.537-0.997,0.993-1.533,1.448
			c-1.121,0.952-2.315,1.824-3.385,2.83c-1.508,1.418-1.546,2.335-0.351,3.986c0.069,0.095,0.144,0.187,0.214,0.281
			c1.624,2.2,1.562,2.435-0.65,3.96c-0.367,0.253-0.69,0.835-0.708,1.279c-0.039,0.989,0.077,1.993,0.22,2.978
			c0.417,2.872-0.557,4.335-3.396,4.984c-0.798,0.183-1.606,0.324-2.406,0.501C282.028,109.544,281.949,109.664,281.742,109.837z
			 M256.967,148.886c-0.186-4.495-0.316-9.06-0.824-13.866c-2.736,1.528-5.159,3.134-7.474,4.907
			c-0.724,0.554-0.571,1.226-0.112,1.858c2.167,2.977,4.899,5.33,8.034,7.233C256.624,149.036,256.698,148.984,256.967,148.886z"/>
	</g>
	<g>
		<g>
			<g>
				<path fill="#006622" d="M338.836,310.425c1.648,3.002,3.952,5.254,6.559,7.212c1.938,1.455,3.995,2.715,6.394,3.273
					c2.221,0.517,4.465,0.66,6.723,0.263c2.304-0.406,4.232-1.556,5.902-3.134c1.219-1.152,2.342-2.406,3.525-3.599
					c0.924-0.932,1.835-1.883,2.827-2.739c0.566-0.488,1.248-0.884,1.94-1.174c1.113-0.467,2.215-0.324,3.206,0.404
					c0.414,0.304,0.808,0.633,1.235,0.969c-1.594,2.445-3.464,4.506-5.741,6.211c-6.4,4.792-13.588,7.746-21.392,9.316
					c-3.895,0.783-7.82,1.316-11.773,1.676c-6.265,0.57-12.49,1.433-18.638,2.759c-2.35,0.507-4.658,1.235-6.952,1.966
					c-3.16,1.007-5.893,2.78-8.381,4.948c-0.115,0.1-0.236,0.196-0.339,0.308c-0.411,0.442-0.489,0.902-0.236,1.332
					c0.238,0.404,0.756,0.62,1.273,0.516c0.178-0.036,0.351-0.104,0.524-0.166c4.017-1.431,8.17-2.237,12.394-2.734
					c3.79-0.446,7.589-0.717,11.407-0.743c4.275-0.029,8.549-0.094,12.823-0.176c7.872-0.151,15.403-1.696,22.273-5.717
					c6.05-3.541,11.477-7.864,16.079-13.182c0.079-0.091,0.17-0.173,0.261-0.253c0.016-0.014,0.057-0.002,0.212-0.002
					c0.289,0.803,0.624,1.642,0.875,2.506c0.054,0.185-0.139,0.515-0.312,0.68c-1.503,1.432-2.965,2.917-4.557,4.243
					c-3.269,2.723-6.831,5.031-10.545,7.106c-2.768,1.547-5.773,2.47-8.788,3.364c-1.315,0.39-2.658,0.688-3.985,1.039
					c-0.323,0.085-0.647,0.186-0.948,0.329c-0.411,0.195-0.667,0.526-0.676,1.007c-0.01,0.524,0.264,0.897,0.717,1.071
					c0.479,0.183,0.992,0.321,1.501,0.374c2.702,0.281,5.413,0.565,8.13,0.406c1.482-0.087,2.973-0.341,4.418-0.691
					c5.727-1.391,10.725-4.163,15.059-8.147c0.382-0.351,0.773-0.692,1.162-1.035c0.018-0.016,0.055-0.011,0.178-0.031
					c0.038,0.468,0.075,0.935,0.114,1.401c0.188,2.286,0.263,4.576,0.059,6.862c-0.078,0.876-0.249,1.753-0.475,2.603
					c-0.321,1.208-1.106,2.057-2.338,2.345c-1.093,0.256-2.21,0.488-3.326,0.548c-2.163,0.116-4.334,0.156-6.5,0.129
					c-2.441-0.03-4.88-0.17-7.32-0.257c-0.824-0.03-1.648-0.047-2.473-0.069c-2.686-0.071-5.371-0.161-8.057-0.207
					c-3.51-0.06-7.022-0.167-10.53-0.098c-2.711,0.053-5.423,0.291-8.125,0.547c-2.945,0.279-5.879,0.678-8.819,1.016
					c-4.341,0.499-8.61,1.384-12.881,2.29c-3.968,0.842-7.96,1.577-11.961,2.247c-1.432,0.24-2.921,0.227-4.381,0.196
					c-3.143-0.066-6.289-0.148-9.426-0.353c-4.08-0.266-8.158-0.588-12.223-1.019c-3.122-0.331-6.23-0.819-9.331-1.326
					c-3.117-0.509-6-1.667-8.547-3.555c-1.592-1.179-3.157-2.403-4.654-3.699c-1.914-1.658-2.172-3.788-1.46-6.106
					c0.493-1.604,1.681-2.485,3.608-2.582c2.255-0.114,4.513-0.165,6.77-0.22c2.013-0.049,4.031,0.002,6.04-0.112
					c3.212-0.182,6.358-0.775,9.417-1.793c0.203-0.067,0.405-0.135,0.611-0.193c0.055-0.015,0.119,0.005,0.147,0.007
					c0.858,3.834,3.194,6.317,6.88,7.509c1.842,0.596,3.737,0.471,5.609,0.031c3.773-0.888,7.305-2.408,10.688-4.253
					c2.759-1.505,5.416-3.194,8.15-4.746c8.096-4.597,16.144-9.282,24.537-13.334C335.003,313.01,337.036,312.014,338.836,310.425z
					 M343.631,318.967c0.082-1.347-0.812-1.976-1.914-1.496c-0.361,0.158-0.702,0.368-1.036,0.58
					c-1.028,0.652-2.158,0.995-3.359,1.095c-1.185,0.099-2.372,0.193-3.56,0.228c-6.541,0.195-11.924,2.736-16.037,7.869
					c-0.189,0.236-0.381,0.485-0.505,0.758c-0.332,0.734,0.13,1.466,0.934,1.459c0.323-0.003,0.665-0.103,0.965-0.235
					c3.666-1.609,7.529-2.433,11.481-2.9c2.656-0.314,5.205-0.987,7.603-2.19c1.483-0.744,2.826-1.691,4.025-2.834
					C342.947,320.618,343.501,319.824,343.631,318.967z"/>
				<path fill="#006622" d="M320.812,305.338c0.299,0.358,0.569,0.685,0.844,1.008c0.686,0.805,1.539,1.385,2.486,1.836
					c0.541,0.258,1.11,0.341,1.695,0.2c0.975-0.236,1.538-1.182,1.377-2.377c-0.188-1.4-0.515-2.761-1.344-3.948
					c-0.068-0.098-0.106-0.217-0.185-0.382c0.25-0.216,0.499-0.433,0.75-0.647c1.161-0.99,2.324-1.979,3.486-2.969
					c0.07-0.059,0.138-0.121,0.209-0.178c0.81-0.652,1.043-0.675,1.812,0.015c1.577,1.416,2.96,3.004,3.955,4.888
					c0.57,1.077,1.123,2.173,1.561,3.308c0.603,1.564,0.383,2.235-1.009,3.206c-0.873,0.608-1.811,1.132-2.754,1.629
					c-3.942,2.075-7.953,4.026-11.834,6.207c-6.359,3.573-12.645,7.275-18.945,10.952c-3.353,1.957-6.777,3.767-10.433,5.088
					c-1.286,0.465-2.622,0.819-3.962,1.096c-4.067,0.84-7.13-1.796-8.333-4.134c-0.61-1.185-0.484-1.892,0.563-2.732
					c0.584-0.469,1.267-0.814,1.964-1.252c0.183,0.306,0.299,0.507,0.421,0.704c0.548,0.879,1.044,1.796,1.663,2.622
					c0.511,0.682,1.236,1.17,2.15,0.844c0.922-0.329,1.218-1.146,1.288-2.044c0.084-1.08-0.127-2.127-0.443-3.154
					c-0.089-0.288-0.187-0.572-0.304-0.926c0.415-0.181,0.797-0.355,1.185-0.516c0.36-0.15,0.726-0.288,1.092-0.433
					c0.367,0.735,0.671,1.434,1.056,2.087c0.308,0.521,0.66,1.038,1.085,1.465c1.079,1.085,2.429,0.751,2.932-0.705
					c0.339-0.98,0.248-1.989,0.097-2.99c-0.096-0.631-0.226-1.258-0.357-1.977c0.656-0.32,1.298-0.633,1.982-0.967
					c0.298,0.569,0.528,1.067,0.812,1.532c0.268,0.439,0.54,0.899,0.904,1.254c1.142,1.113,2.816,0.692,3.232-0.863
					c0.181-0.679,0.1-1.449,0.029-2.167c-0.065-0.659-0.277-1.304-0.443-2.039c0.472-0.234,0.925-0.459,1.447-0.719
					c0.216,0.339,0.414,0.638,0.601,0.945c0.406,0.666,0.93,1.216,1.621,1.579c0.861,0.452,1.731,0.415,2.501-0.176
					c0.734-0.563,0.905-1.387,0.641-2.231c-0.253-0.809-0.639-1.577-1.013-2.476c0.482-0.306,1.003-0.637,1.544-0.981
					c0.378,0.461,0.67,0.898,1.042,1.25c0.46,0.436,0.939,0.896,1.494,1.182c1.368,0.706,2.752-0.105,2.771-1.642
					c0.01-0.777-0.208-1.56-0.36-2.333c-0.093-0.474-0.258-0.933-0.411-1.47c0.679-0.466,1.346-0.923,2.053-1.408
					c0.446,0.652,0.826,1.238,1.237,1.8c0.481,0.657,1.071,1.161,1.919,1.295c1.198,0.189,2.187-0.431,2.319-1.629
					c0.082-0.74-0.048-1.511-0.151-2.259c-0.066-0.478-0.266-0.938-0.393-1.409C319.648,306.056,319.651,306.055,320.812,305.338z"
					/>
			</g>
			<g>
				<path fill="#006622" d="M384.383,343.904c0.4,2.509,0.501,4.897-0.11,7.274c-0.098,0.383-0.236,0.757-0.369,1.13
					c-0.569,1.598-1.716,2.558-3.331,2.986c-2.229,0.59-4.503,0.776-6.802,0.751c-4.74-0.05-9.435-0.612-14.129-1.211
					c-2.268-0.289-4.554-0.458-6.837-0.615c-2.618-0.179-5.239-0.351-7.862-0.403c-3.083-0.061-6.158,0.175-9.226,0.508
					c-1.302,0.142-2.619,0.143-3.928,0.234c-2.433,0.17-4.864,0.392-7.299,0.529c-2.194,0.123-4.394,0.132-6.589,0.244
					c-2.314,0.118-4.625,0.302-6.939,0.447c-1.461,0.092-2.923,0.188-4.385,0.246c-3.872,0.154-7.744,0.34-11.618,0.412
					c-2.93,0.055-5.864,0.003-8.794-0.087c-6.229-0.191-12.427-0.732-18.554-1.924c-2.185-0.425-4.381-0.815-6.539-1.351
					c-3.652-0.907-6.293-3.268-8.437-6.232c-0.867-1.199-1.212-2.645-1.619-4.207c0.263,0.166,0.43,0.254,0.576,0.367
					c0.967,0.746,1.926,1.502,2.894,2.247c2.91,2.24,6.196,3.614,9.781,4.363c3.293,0.688,6.623,1.096,9.96,1.453
					c3.216,0.345,6.44,0.617,9.665,0.858c1.917,0.143,3.842,0.174,5.764,0.235c2.411,0.076,4.822,0.135,7.233,0.194
					c3.011,0.073,5.96-0.43,8.895-1.012c4.788-0.949,9.557-1.998,14.355-2.89c2.786-0.518,5.609-0.853,8.425-1.194
					c3.3-0.401,6.604-0.82,9.919-1.044c3.164-0.213,6.345-0.276,9.517-0.242c4.822,0.052,9.643,0.236,14.463,0.383
					c2.471,0.076,4.94,0.259,7.41,0.276c2.563,0.018,5.13-0.055,7.689-0.192c1.148-0.061,2.293-0.327,3.418-0.591
					c0.614-0.144,1.213-0.426,1.765-0.742C383.293,344.795,383.772,344.362,384.383,343.904z"/>
				<g>
					<path fill="#006622" d="M311.419,336.722c0.517-0.215,0.867-0.376,1.227-0.51c3.705-1.371,7.521-2.304,11.424-2.892
						c3.107-0.468,6.21-0.961,9.324-1.38c2.448-0.33,4.912-0.539,7.363-0.848c6.309-0.794,12.542-1.951,18.527-4.177
						c4.984-1.855,9.587-4.41,13.786-7.681c1.75-1.363,3.209-2.998,4.47-4.816c0.242-0.35,0.486-0.698,0.761-1.094
						c0.681,0.607,1.035,1.364,1.445,2.182c-0.619,0.754-1.188,1.554-1.862,2.252c-5.698,5.902-12.117,10.788-19.74,13.978
						c-3.549,1.486-7.243,2.336-11.067,2.706c-2.585,0.25-5.171,0.347-7.766,0.366c-3.847,0.028-7.695,0.048-11.538,0.197
						c-5.336,0.207-10.648,0.713-15.899,1.739C311.789,336.761,311.696,336.737,311.419,336.722z"/>
					<path fill="#006622" d="M358.697,337.73c9.344-2.637,16.939-8.034,23.737-14.835c0.332,1.275,0.517,2.534,0.568,3.808
						c0.009,0.23-0.159,0.522-0.334,0.696c-0.819,0.819-1.653,1.624-2.51,2.403c-4.253,3.864-9.262,6.259-14.813,7.596
						C363.161,337.924,360.951,338.015,358.697,337.73z"/>
					<g>
						<path fill="##006622" d="M322.26,304.27c0.679-0.496,1.265-0.924,1.962-1.434c0.588,1.229,1.071,2.395,1.098,3.845
							C323.957,306.205,323.134,305.293,322.26,304.27z"/>
						<path fill="#006622" d="M318.256,307.118c0.204,1.3,0.542,2.4,0.384,3.721c-1.077-0.608-1.375-1.66-2.138-2.452
							C317.083,307.968,317.588,307.602,318.256,307.118z"/>
						<path fill="#006622" d="M284.404,325.482c0.464-0.204,0.875-0.385,1.354-0.596c0.499,1.09,0.572,2.201,0.607,3.376
							C285.707,327.898,285.033,326.932,284.404,325.482z"/>
						<path fill="#006622" d="M291.535,322.496c0.471-0.205,0.875-0.382,1.41-0.615c0.098,1.131,0.185,2.136,0.279,3.221
							C292.594,324.703,292.24,324.14,291.535,322.496z"/>
						<path fill="#006622" d="M309.968,312.827c0.526-0.349,0.971-0.644,1.466-0.973c0.259,0.932,0.587,1.752,0.419,2.77
							C311.044,314.22,310.606,313.528,309.968,312.827z"/>
						<path fill="#006622" d="M304.114,316.334c0.456-0.252,0.819-0.453,1.279-0.707c0.309,0.862,0.838,1.57,0.721,2.626
							C305.014,317.948,304.745,317.02,304.114,316.334z"/>
						<path fill="#006622" d="M299.499,318.732c0.163,1.029,0.472,1.92,0.223,2.886c-0.568-0.366-0.903-0.866-1.52-2.241
							c0.199-0.118,0.398-0.249,0.609-0.357C298.995,318.926,299.192,318.858,299.499,318.732z"/>
					</g>
					<path fill="#006622" d="M321.613,326.019c0.172-0.177,0.322-0.35,0.492-0.501c2.61-2.332,5.691-3.66,9.132-4.108
						c2.177-0.283,4.376-0.405,6.567-0.574c0.343-0.026,0.697,0.083,1.046,0.13c0.016,0.065,0.031,0.13,0.046,0.194
						c-0.342,0.232-0.67,0.487-1.027,0.691c-2.068,1.174-4.294,1.9-6.639,2.249c-3.2,0.476-6.401,0.937-9.482,1.984
						C321.728,326.091,321.697,326.061,321.613,326.019z"/>
				</g>
			</g>
		</g>
		<g>
			<g>
				<path d="M99.027,88.128c8.393,4.052,16.441,8.737,24.537,13.334c2.734,1.552,5.391,3.241,8.15,4.746
					c3.383,1.846,6.915,3.365,10.688,4.253c1.872,0.44,3.767,0.565,5.609-0.031c3.687-1.193,6.022-3.675,6.88-7.509
					c0.028-0.002,0.093-0.022,0.147-0.007c0.205,0.058,0.408,0.126,0.611,0.193c3.059,1.018,6.205,1.612,9.417,1.793
					c2.009,0.114,4.027,0.063,6.04,0.112c2.257,0.055,4.516,0.106,6.77,0.22c1.927,0.097,3.115,0.978,3.608,2.582
					c0.712,2.318,0.455,4.448-1.46,6.106c-1.497,1.297-3.062,2.52-4.654,3.699c-2.547,1.887-5.43,3.046-8.547,3.555
					c-3.1,0.506-6.208,0.995-9.331,1.326c-4.065,0.431-8.144,0.752-12.223,1.019c-3.137,0.205-6.283,0.287-9.426,0.353
					c-1.46,0.031-2.949,0.044-4.381-0.196c-4.001-0.67-7.993-1.405-11.961-2.247c-4.27-0.906-8.54-1.791-12.881-2.29
					c-2.94-0.338-5.874-0.737-8.819-1.016c-2.702-0.256-5.413-0.493-8.124-0.547c-3.508-0.069-7.02,0.039-10.53,0.098
					c-2.686,0.046-5.372,0.136-8.057,0.207c-0.824,0.022-1.649,0.039-2.473,0.069c-2.44,0.088-4.88,0.227-7.32,0.257
					c-2.166,0.027-4.337-0.014-6.5-0.129c-1.116-0.06-2.233-0.292-3.326-0.548c-1.232-0.288-2.017-1.137-2.338-2.345
					c-0.226-0.851-0.397-1.728-0.475-2.603c-0.204-2.286-0.13-4.576,0.059-6.862c0.038-0.466,0.076-0.933,0.114-1.401
					c0.123,0.02,0.16,0.015,0.178,0.031c0.389,0.343,0.78,0.684,1.162,1.035c4.334,3.984,9.332,6.756,15.059,8.147
					c1.445,0.351,2.936,0.605,4.418,0.692c2.716,0.159,5.427-0.125,8.13-0.406c0.509-0.053,1.022-0.191,1.501-0.374
					c0.453-0.173,0.727-0.547,0.717-1.071c-0.009-0.481-0.265-0.812-0.676-1.007c-0.3-0.143-0.625-0.243-0.948-0.329
					c-1.327-0.351-2.669-0.65-3.985-1.039c-3.015-0.893-6.02-1.817-8.788-3.364c-3.714-2.075-7.276-4.383-10.545-7.106
					c-1.593-1.327-3.055-2.811-4.557-4.243c-0.173-0.165-0.366-0.496-0.312-0.68c0.252-0.864,0.586-1.703,0.875-2.506
					c0.156,0,0.196-0.012,0.212,0.002c0.09,0.08,0.182,0.162,0.261,0.253c4.602,5.318,10.029,9.641,16.079,13.182
					c6.87,4.02,14.4,5.566,22.273,5.717c4.274,0.082,8.549,0.147,12.823,0.176c3.818,0.026,7.617,0.297,11.407,0.743
					c4.224,0.497,8.377,1.303,12.394,2.734c0.173,0.061,0.345,0.13,0.524,0.166c0.517,0.104,1.035-0.112,1.273-0.516
					c0.253-0.43,0.175-0.89-0.236-1.332c-0.104-0.111-0.224-0.207-0.339-0.308c-2.488-2.168-5.221-3.941-8.381-4.948
					c-2.294-0.731-4.602-1.46-6.952-1.966c-6.149-1.326-12.374-2.189-18.638-2.759c-3.952-0.36-7.878-0.893-11.773-1.676
					c-7.804-1.57-14.993-4.524-21.392-9.316c-2.276-1.704-4.146-3.766-5.741-6.211c0.427-0.336,0.821-0.665,1.235-0.969
					c0.991-0.727,2.093-0.871,3.206-0.404c0.692,0.291,1.374,0.686,1.94,1.174c0.992,0.855,1.903,1.807,2.827,2.739
					c1.183,1.192,2.306,2.446,3.525,3.599c1.67,1.578,3.598,2.728,5.902,3.134c2.258,0.398,4.502,0.254,6.723-0.263
					c2.399-0.558,4.456-1.818,6.394-3.273c2.608-1.958,4.912-4.21,6.559-7.212C94.963,86.151,96.997,87.148,99.027,88.128z
					 M89.771,95.438c1.199,1.142,2.542,2.09,4.025,2.834c2.398,1.203,4.947,1.876,7.603,2.19c3.952,0.467,7.815,1.291,11.481,2.9
					c0.3,0.132,0.642,0.232,0.965,0.235c0.804,0.007,1.266-0.725,0.934-1.459c-0.124-0.273-0.315-0.521-0.505-0.758
					c-4.113-5.133-9.496-7.674-16.037-7.869c-1.188-0.035-2.375-0.129-3.56-0.228c-1.201-0.1-2.331-0.443-3.359-1.095
					c-0.334-0.212-0.675-0.422-1.036-0.58c-1.101-0.48-1.995,0.149-1.914,1.496C88.499,93.961,89.053,94.755,89.771,95.438z"/>
				<path d="M111.188,79.475c-0.299,0.358-0.569,0.685-0.844,1.008c-0.686,0.805-1.539,1.385-2.486,1.836
					c-0.541,0.257-1.11,0.341-1.695,0.2c-0.975-0.236-1.538-1.182-1.377-2.377c0.188-1.4,0.515-2.761,1.344-3.948
					c0.068-0.098,0.106-0.217,0.185-0.382c-0.25-0.216-0.499-0.433-0.75-0.647c-1.161-0.99-2.324-1.979-3.486-2.969
					c-0.07-0.059-0.138-0.121-0.209-0.178c-0.81-0.652-1.043-0.675-1.812,0.015c-1.577,1.416-2.96,3.004-3.955,4.888
					c-0.57,1.077-1.123,2.173-1.561,3.308c-0.603,1.564-0.383,2.235,1.009,3.206c0.873,0.608,1.811,1.132,2.754,1.629
					c3.942,2.075,7.953,4.026,11.834,6.207c6.359,3.573,12.645,7.275,18.945,10.952c3.353,1.957,6.777,3.767,10.433,5.088
					c1.286,0.465,2.622,0.819,3.962,1.096c4.067,0.84,7.13-1.796,8.333-4.134c0.61-1.185,0.484-1.892-0.563-2.732
					c-0.584-0.469-1.267-0.814-1.964-1.252c-0.183,0.306-0.299,0.507-0.421,0.704c-0.548,0.879-1.044,1.796-1.663,2.622
					c-0.511,0.682-1.236,1.17-2.15,0.844c-0.922-0.329-1.218-1.146-1.288-2.044c-0.084-1.08,0.127-2.127,0.443-3.154
					c0.089-0.288,0.187-0.572,0.304-0.926c-0.415-0.181-0.797-0.355-1.185-0.516c-0.36-0.15-0.726-0.288-1.092-0.433
					c-0.367,0.735-0.671,1.434-1.056,2.087c-0.308,0.521-0.66,1.038-1.085,1.465c-1.079,1.085-2.429,0.751-2.932-0.705
					c-0.339-0.98-0.248-1.989-0.097-2.99c0.096-0.631,0.226-1.258,0.357-1.977c-0.656-0.32-1.298-0.633-1.982-0.967
					c-0.298,0.569-0.528,1.067-0.812,1.532c-0.268,0.439-0.54,0.899-0.904,1.254c-1.142,1.113-2.816,0.692-3.232-0.863
					c-0.181-0.679-0.1-1.449-0.029-2.167c0.065-0.659,0.277-1.304,0.443-2.039c-0.472-0.234-0.925-0.459-1.447-0.719
					c-0.216,0.339-0.414,0.638-0.601,0.945c-0.406,0.666-0.93,1.216-1.621,1.579c-0.861,0.452-1.731,0.415-2.501-0.176
					c-0.734-0.563-0.905-1.387-0.641-2.231c0.253-0.809,0.639-1.577,1.013-2.476c-0.482-0.306-1.003-0.637-1.544-0.981
					c-0.378,0.461-0.67,0.898-1.042,1.25c-0.46,0.436-0.939,0.896-1.494,1.182c-1.368,0.706-2.752-0.105-2.771-1.642
					c-0.01-0.777,0.208-1.56,0.36-2.333c0.093-0.474,0.258-0.933,0.411-1.47c-0.679-0.466-1.346-0.923-2.053-1.408
					c-0.446,0.652-0.826,1.238-1.237,1.8c-0.481,0.657-1.071,1.161-1.919,1.295c-1.198,0.189-2.187-0.431-2.319-1.629
					c-0.082-0.74,0.048-1.511,0.152-2.259c0.066-0.478,0.266-0.937,0.393-1.409C112.352,80.194,112.349,80.193,111.188,79.475z"/>
			</g>
			<g>
				<path d="M47.617,118.041c-0.4,2.509-0.501,4.897,0.11,7.274c0.098,0.383,0.236,0.757,0.369,1.13
					c0.569,1.598,1.716,2.558,3.331,2.986c2.229,0.59,4.503,0.776,6.802,0.751c4.74-0.05,9.435-0.612,14.129-1.211
					c2.268-0.289,4.554-0.458,6.837-0.615c2.618-0.179,5.239-0.351,7.862-0.403c3.083-0.061,6.158,0.175,9.226,0.508
					c1.302,0.142,2.619,0.143,3.928,0.234c2.433,0.17,4.864,0.392,7.299,0.529c2.194,0.123,4.394,0.132,6.588,0.244
					c2.314,0.118,4.625,0.302,6.939,0.447c1.461,0.092,2.923,0.188,4.385,0.246c3.872,0.154,7.744,0.34,11.618,0.412
					c2.93,0.055,5.864,0.003,8.794-0.087c6.229-0.191,12.427-0.732,18.554-1.924c2.185-0.425,4.381-0.815,6.539-1.351
					c3.652-0.907,6.293-3.268,8.437-6.232c0.867-1.199,1.212-2.645,1.619-4.207c-0.263,0.166-0.43,0.254-0.576,0.367
					c-0.967,0.746-1.926,1.502-2.894,2.247c-2.91,2.24-6.196,3.614-9.781,4.363c-3.293,0.688-6.623,1.096-9.96,1.453
					c-3.216,0.345-6.44,0.617-9.665,0.858c-1.917,0.143-3.842,0.174-5.764,0.235c-2.411,0.076-4.822,0.135-7.233,0.194
					c-3.011,0.073-5.96-0.43-8.895-1.012c-4.788-0.949-9.557-1.998-14.355-2.89c-2.786-0.518-5.609-0.853-8.425-1.194
					c-3.3-0.401-6.604-0.821-9.919-1.044c-3.164-0.213-6.345-0.276-9.517-0.242c-4.822,0.052-9.643,0.236-14.463,0.383
					c-2.471,0.076-4.94,0.259-7.41,0.276c-2.563,0.018-5.13-0.055-7.689-0.192c-1.148-0.061-2.293-0.327-3.418-0.591
					c-0.614-0.144-1.213-0.426-1.765-0.742C48.707,118.932,48.228,118.499,47.617,118.041z"/>
				<g>
					<path d="M120.581,110.859c-0.517-0.215-0.867-0.376-1.227-0.51c-3.705-1.371-7.521-2.304-11.424-2.892
						c-3.107-0.468-6.21-0.961-9.324-1.381c-2.448-0.33-4.912-0.539-7.363-0.848c-6.309-0.794-12.542-1.95-18.527-4.177
						c-4.984-1.855-9.587-4.41-13.786-7.681c-1.75-1.363-3.209-2.998-4.47-4.816c-0.242-0.35-0.486-0.698-0.761-1.094
						c-0.681,0.607-1.035,1.364-1.445,2.182c0.619,0.754,1.188,1.554,1.861,2.252c5.698,5.902,12.117,10.788,19.74,13.978
						c3.549,1.486,7.243,2.336,11.067,2.706c2.585,0.25,5.171,0.347,7.766,0.366c3.847,0.028,7.695,0.048,11.538,0.197
						c5.336,0.207,10.648,0.713,15.899,1.739C120.211,110.898,120.304,110.874,120.581,110.859z"/>
					<path d="M73.303,111.868c-9.344-2.637-16.939-8.034-23.737-14.835c-0.332,1.275-0.517,2.534-0.568,3.808
						c-0.009,0.23,0.159,0.522,0.334,0.696c0.819,0.819,1.653,1.624,2.51,2.403c4.253,3.864,9.262,6.259,14.813,7.596
						C68.839,112.062,71.049,112.152,73.303,111.868z"/>
					<g>
						<path d="M109.74,78.407c-0.679-0.496-1.265-0.924-1.962-1.433c-0.588,1.229-1.071,2.395-1.098,3.845
							C108.043,80.342,108.866,79.43,109.74,78.407z"/>
						<path d="M113.744,81.256c-0.204,1.3-0.542,2.4-0.384,3.721c1.077-0.608,1.375-1.66,2.138-2.452
							C114.917,82.105,114.412,81.739,113.744,81.256z"/>
						<path d="M147.596,99.619c-0.464-0.204-0.875-0.385-1.354-0.596c-0.499,1.09-0.572,2.201-0.607,3.376
							C146.294,102.036,146.967,101.069,147.596,99.619z"/>
						<path d="M140.465,96.633c-0.471-0.205-0.875-0.382-1.41-0.615c-0.098,1.131-0.185,2.136-0.279,3.221
							C139.406,98.84,139.76,98.277,140.465,96.633z"/>
						<path d="M122.032,86.964c-0.526-0.349-0.971-0.644-1.466-0.973c-0.259,0.932-0.587,1.752-0.419,2.77
							C120.956,88.357,121.394,87.666,122.032,86.964z"/>
						<path d="M127.886,90.472c-0.455-0.252-0.819-0.453-1.279-0.707c-0.309,0.862-0.838,1.57-0.721,2.626
							C126.986,92.085,127.255,91.158,127.886,90.472z"/>
						<path d="M132.501,92.869c-0.163,1.029-0.472,1.92-0.223,2.886c0.568-0.366,0.903-0.866,1.52-2.241
							c-0.199-0.118-0.398-0.249-0.609-0.357C133.005,93.063,132.808,92.996,132.501,92.869z"/>
					</g>
					<path d="M110.387,100.156c-0.172-0.177-0.322-0.35-0.492-0.501c-2.61-2.332-5.691-3.66-9.132-4.108
						c-2.177-0.283-4.376-0.405-6.567-0.574c-0.343-0.026-0.697,0.083-1.046,0.13c-0.016,0.065-0.031,0.13-0.046,0.194
						c0.342,0.232,0.67,0.487,1.027,0.691c2.068,1.174,4.294,1.9,6.639,2.249c3.2,0.476,6.401,0.937,9.482,1.984
						C110.272,100.228,110.303,100.198,110.387,100.156z"/>
				</g>
			</g>
		</g>
	</g>
</g>
</svg>
