<?xml version="1.0" encoding="utf-8"?>
<!-- Generator: Adobe Illustrator 20.1.0, SVG Export Plug-In . SVG Version: 6.00 Build 0)  -->
<svg version="1.1" id="Calque_1" xmlns="http://www.w3.org/2000/svg" xmlns:xlink="http://www.w3.org/1999/xlink" x="0px" y="0px"
	 viewBox="0 0 432 432" style="enable-background:new 0 0 432 432;" xml:space="preserve">
<style type="text/css">
	.st0{fill:#C9973C;}
	.st1{fill:#CC7B26;}
</style>
<g fill="#006622">
	<g>
		<path d="M94.6,84.5H81v57.3h8.6v-21.6h5c3.7,0,6.9-1.3,9.6-4c2.6-2.7,4-5.9,4-9.7v-8.3c0-3.9-1.2-7.2-3.5-9.7
			C102.2,85.8,98.8,84.5,94.6,84.5z M99.8,106.7c0,1.4-0.5,2.5-1.4,3.5c-1,1-2.1,1.5-3.5,1.5h-5.2V93.3h5.2c1.5,0,2.7,0.5,3.6,1.4
			c0.9,0.9,1.3,2.1,1.3,3.6V106.7z"/>
		<path d="M119.2,84.5l-9.7,57.3h9l2.1-13.2h9l2,13.2h9.1l-9.6-57.3H119.2z M121.9,120.2l3.2-22.6l3.2,22.6H121.9z"/>
		<rect x="148" y="84.5" width="8.6" height="57.3"/>
		<polygon points="185.5,84.4 185.5,123 174,84.4 164.3,84.4 164.3,141.7 173,141.7 173,105.1 184.9,141.7 194.1,141.7 194.1,84.4 
					"/>
	</g>
	<g>
		<polygon points="101.4,194 93.4,152.8 81,152.8 81,210.1 89.6,210.1 89.6,174.2 98,210.1 104.9,210.1 112.4,174.1 112.4,210.1 
			121.1,210.1 121.1,152.8 109.2,152.8 		"/>
		<path d="M138,152.9l-9.7,57.3h9l2.1-13.2h9l2,13.2h9.1l-9.6-57.3H138z M140.7,188.5l3.2-22.6l3.2,22.6H140.7z"/>
		<polygon points="195.2,152.8 186,152.8 175.4,173.2 175.4,152.8 166.8,152.8 166.8,210.1 175.4,210.1 175.4,191.9 178,186.8 
			187.1,210.1 197.2,210.1 183.3,176.2 		"/>
		<polygon points="204.2,210.1 228.8,210.1 228.8,201.4 212.9,201.4 212.9,185.8 224.5,185.8 224.5,177.1 212.9,177.1 212.9,161.5 
			228.8,161.5 228.8,152.8 204.2,152.8 		"/>
		<path d="M262,190.4c-0.3-0.8-0.8-1.7-1.3-2.7c-1.2-2.1-2.8-4.2-4.9-6.3c-0.6-0.7-2-1.8-4-3.5c-1.7-1.4-3-2.6-3.8-3.7
			c-2.3-2.7-3.4-5.4-3.4-8c0-1.7,0.3-3.1,1-4.2c0.8-1.4,2-2.1,3.6-2.1c1.5,0,2.6,0.5,3.4,1.4c1.1,1.3,1.8,3.1,2,5.5l8.3-1.5
			c-0.2-2.5-0.8-4.7-1.9-6.6c-1.1-1.9-2.4-3.4-4.1-4.5c-2.2-1.4-4.8-2.1-7.9-2.1c-3.2,0-5.9,0.8-8,2.4c-3.5,2.7-5.3,6.6-5.3,11.8
			c0,2.9,0.6,5.6,1.9,8c1.2,2.2,3.2,4.7,6.1,7.5c3.4,3.2,6,5.7,7.7,7.3c2.2,2.3,3.2,4.7,3.2,7.1c0,1.6-0.3,2.9-0.9,3.8
			c-1.1,1.8-2.6,2.7-4.5,2.8c-1.3,0.1-2.5-0.5-3.6-1.6c-1.4-1.5-2.3-3.9-2.7-7.3l-8.2,0.6c0.2,3,0.8,5.8,1.9,8.1
			c1.1,2.4,2.6,4.2,4.4,5.6c2.2,1.7,5,2.5,8.4,2.5c1.8,0,3.4-0.2,4.8-0.6c2.6-0.8,4.5-2.1,5.9-4.1c2.1-2.8,3.2-6.2,3.1-10.2
			C263.3,194.2,262.9,192.4,262,190.4z"/>
	</g>
	<g>
		<polygon points="96.9,241.7 90.5,221.2 81,221.2 92.6,254.5 92.6,278.5 101.2,278.5 101.2,254.5 112.8,221.2 103.3,221.2 		"/>
		<path d="M130.2,220.5c-3.7,0-7,1.3-9.6,4c-2.7,2.7-4,5.9-4,9.7v31.3c0,3.8,1.3,7,4,9.7c2.7,2.7,5.9,4,9.7,4c3.8,0,7-1.3,9.7-4
			c2.7-2.7,4-5.9,4-9.7v-31.3c0-3.8-1.3-7-4-9.7C137.3,221.8,134,220.5,130.2,220.5z M134.9,265.3c0,1.4-0.5,2.5-1.4,3.5
			c-1,1-2.1,1.4-3.5,1.4s-2.5-0.5-3.5-1.4c-1-1-1.5-2.1-1.5-3.5V234c0-1.4,0.5-2.5,1.5-3.5c1-1,2.1-1.4,3.5-1.4s2.5,0.5,3.5,1.4
			c1,1,1.4,2.1,1.4,3.5V265.3z"/>
		<path d="M169.8,221.2v44.2c0,1.4-0.5,2.5-1.4,3.5c-1,1-2.1,1.4-3.5,1.4c-1.4,0-2.5-0.5-3.5-1.4c-1-1-1.5-2.1-1.5-3.5v-44.2h-8.5
			v44.3c0,3.8,1.3,7,4,9.6c2.7,2.7,5.9,4,9.7,4c3.8,0,7-1.3,9.7-3.9c2.7-2.6,4-5.8,4-9.7v-44.3H169.8z"/>
	</g>
	<g>
		<path d="M107,324.4c-1.2-2.1-2.8-4.2-4.9-6.3c-0.6-0.7-2-1.8-4-3.5c-1.7-1.4-3-2.6-3.8-3.7c-2.3-2.7-3.4-5.4-3.4-8
			c0-1.7,0.3-3.1,1-4.2c0.8-1.4,2-2.1,3.6-2.1c1.5,0,2.6,0.5,3.4,1.4c1.1,1.3,1.8,3.1,2,5.5l8.3-1.5c-0.2-2.5-0.8-4.7-1.9-6.6
			c-1.1-1.9-2.4-3.4-4.1-4.5c-2.2-1.4-4.8-2.1-7.9-2.1c-3.2,0-5.9,0.8-8,2.4c-3.5,2.7-5.3,6.6-5.3,11.8c0,2.9,0.6,5.6,1.9,8
			c1.2,2.2,3.2,4.7,6.1,7.5c3.4,3.2,6,5.7,7.7,7.3c2.2,2.3,3.2,4.7,3.2,7.1c0,1.6-0.3,2.9-0.9,3.8c-1.1,1.8-2.6,2.7-4.5,2.8
			c-1.3,0.1-2.5-0.5-3.6-1.6c-1.4-1.5-2.3-3.9-2.7-7.3l-8.2,0.6c0.2,3,0.8,5.8,1.9,8.1c1.1,2.4,2.6,4.2,4.4,5.6
			c2.2,1.7,5,2.5,8.4,2.5c1.8,0,3.4-0.2,4.8-0.6c2.6-0.8,4.5-2.1,5.9-4.1c2.1-2.8,3.2-6.2,3.1-10.2c0-1.6-0.5-3.4-1.3-5.5
			C107.9,326.3,107.5,325.4,107,324.4z"/>
		<polygon points="115.5,298.2 124.7,298.2 124.7,346.8 133.3,346.8 133.3,298.2 142.5,298.2 142.5,289.6 115.5,289.6 		"/>
		<path d="M176.6,311.5v-8.3c0-4.1-1-7.4-3-9.7c-2.3-2.7-5.8-4-10.6-4h-13.6v57.3h8.6v-21.6h5c0.3,0,0.5,0,0.8,0l5.2,21.6h9.3
			l-6.4-25C175.1,319,176.6,315.6,176.6,311.5z M168.2,311.7c0,1.4-0.5,2.5-1.4,3.5c-1,1-2.1,1.5-3.5,1.5H158v-18.3h5.2
			c3.3,0,4.9,1.7,4.9,5V311.7z"/>
		<path d="M198,288.8c-3.7,0-7,1.3-9.6,4c-2.7,2.7-4,5.9-4,9.7v31.3c0,3.8,1.3,7,4,9.7c2.7,2.7,5.9,4,9.7,4c3.8,0,7-1.3,9.7-4
			c2.7-2.7,4-5.9,4-9.7v-31.3c0-3.8-1.3-7-4-9.7C205,290.2,201.8,288.8,198,288.8z M202.7,333.7c0,1.4-0.5,2.5-1.4,3.5
			s-2.1,1.4-3.5,1.4c-1.4,0-2.5-0.5-3.5-1.4c-1-1-1.5-2.1-1.5-3.5v-31.3c0-1.4,0.5-2.5,1.5-3.5c1-1,2.1-1.4,3.5-1.4
			c1.4,0,2.5,0.5,3.5,1.4s1.4,2.1,1.4,3.5V333.7z"/>
		<polygon points="240.4,328 229,289.5 219.3,289.5 219.3,346.8 227.9,346.8 227.9,310.1 239.8,346.8 249.1,346.8 249.1,289.5 
			240.4,289.5 		"/>
		<path d="M270.4,288.9c-3.8,0-7,1.3-9.7,4c-2.7,2.7-4,5.9-4,9.7v31.3c0,3.7,1.3,7,4,9.6c2.7,2.7,5.9,4,9.7,4c3.7,0,7-1.3,9.6-4
			c2.7-2.6,4-5.9,4-9.7v-20h-13.8v8.7h4.8v11.3c0,1.4-0.5,2.5-1.5,3.5c-1,1-2.1,1.4-3.5,1.4c-1.4,0-2.5-0.5-3.5-1.4
			c-1-1-1.4-2.1-1.4-3.5v-31.3c0-1.4,0.5-2.5,1.4-3.5c1-1,2.1-1.5,3.5-1.5c1.4,0,2.5,0.5,3.5,1.5c1,1,1.5,2.1,1.5,3.5v6.7h9v-6.5
			c0-3.8-1.3-7-4-9.7C277.4,290.3,274.2,288.9,270.4,288.9z"/>
		<polygon points="291.5,346.8 316.1,346.8 316.1,338.1 300.1,338.1 300.1,322.5 311.8,322.5 311.8,313.8 300.1,313.8 300.1,298.2 
			316.1,298.2 316.1,289.5 291.5,289.5 		"/>
		<path d="M344.6,321.8c3.1-2.8,4.6-6.2,4.6-10.3v-8.3c0-4.1-1-7.4-3-9.7c-2.3-2.7-5.8-4-10.6-4H322v57.3h8.6v-21.6h5
			c0.3,0,0.5,0,0.8,0l5.2,21.6h9.3L344.6,321.8z M340.8,311.7c0,1.4-0.5,2.5-1.4,3.5c-1,1-2.1,1.5-3.5,1.5h-5.2v-18.3h5.2
			c3.3,0,4.9,1.7,4.9,5V311.7z"/>
	</g>
</g>
</svg>
